<svg height="5118" width="720" xmlns="http://www.w3.org/2000/svg">
<rect height="5118" fill="#555" width="720"></rect>
<text fill="#7f7" font-family="Courier New" font-size="12" xml:space="preserve">
<tspan x="10" y="26">165 megabytes installed</tspan>
<tspan x="10" y="42"></tspan>
<tspan x="10" y="58">node_modules</tspan>
<tspan x="10" y="74">└─┬ vmd@1.29.0 </tspan>
<tspan x="10" y="90">  ├─┬ chokidar@1.6.1 </tspan>
<tspan x="10" y="106">  │ ├─┬ anymatch@1.3.0 </tspan>
<tspan x="10" y="122">  │ │ ├── arrify@1.0.1 </tspan>
<tspan x="10" y="138">  │ │ └─┬ micromatch@2.3.11 </tspan>
<tspan x="10" y="154">  │ │   ├─┬ arr-diff@2.0.0 </tspan>
<tspan x="10" y="170">  │ │   │ └── arr-flatten@1.0.3 </tspan>
<tspan x="10" y="186">  │ │   ├── array-unique@0.2.1 </tspan>
<tspan x="10" y="202">  │ │   ├─┬ braces@1.8.5 </tspan>
<tspan x="10" y="218">  │ │   │ ├─┬ expand-range@1.8.2 </tspan>
<tspan x="10" y="234">  │ │   │ │ └─┬ fill-range@2.2.3 </tspan>
<tspan x="10" y="250">  │ │   │ │   ├── is-number@2.1.0 </tspan>
<tspan x="10" y="266">  │ │   │ │   ├── isobject@2.1.0 </tspan>
<tspan x="10" y="282">  │ │   │ │   └── randomatic@1.1.6 </tspan>
<tspan x="10" y="298">  │ │   │ ├── preserve@0.2.0 </tspan>
<tspan x="10" y="314">  │ │   │ └── repeat-element@1.1.2 </tspan>
<tspan x="10" y="330">  │ │   ├─┬ expand-brackets@0.1.5 </tspan>
<tspan x="10" y="346">  │ │   │ └── is-posix-bracket@0.1.1 </tspan>
<tspan x="10" y="362">  │ │   ├── extglob@0.3.2 </tspan>
<tspan x="10" y="378">  │ │   ├── filename-regex@2.0.0 </tspan>
<tspan x="10" y="394">  │ │   ├── kind-of@3.1.0 </tspan>
<tspan x="10" y="410">  │ │   ├─┬ normalize-path@2.1.1 </tspan>
<tspan x="10" y="426">  │ │   │ └── remove-trailing-separator@1.0.1 </tspan>
<tspan x="10" y="442">  │ │   ├─┬ object.omit@2.0.1 </tspan>
<tspan x="10" y="458">  │ │   │ ├─┬ for-own@0.1.5 </tspan>
<tspan x="10" y="474">  │ │   │ │ └── for-in@1.0.2 </tspan>
<tspan x="10" y="490">  │ │   │ └── is-extendable@0.1.1 </tspan>
<tspan x="10" y="506">  │ │   ├─┬ parse-glob@3.0.4 </tspan>
<tspan x="10" y="522">  │ │   │ ├── glob-base@0.3.0 </tspan>
<tspan x="10" y="538">  │ │   │ └── is-dotfile@1.0.2 </tspan>
<tspan x="10" y="554">  │ │   └─┬ regex-cache@0.4.3 </tspan>
<tspan x="10" y="570">  │ │     ├── is-equal-shallow@0.1.3 </tspan>
<tspan x="10" y="586">  │ │     └── is-primitive@2.0.0 </tspan>
<tspan x="10" y="602">  │ ├── async-each@1.0.1 </tspan>
<tspan x="10" y="618">  │ ├── glob-parent@2.0.0 </tspan>
<tspan x="10" y="634">  │ ├── inherits@2.0.3 </tspan>
<tspan x="10" y="650">  │ ├─┬ is-binary-path@1.0.1 </tspan>
<tspan x="10" y="666">  │ │ └── binary-extensions@1.8.0 </tspan>
<tspan x="10" y="682">  │ ├─┬ is-glob@2.0.1 </tspan>
<tspan x="10" y="698">  │ │ └── is-extglob@1.0.0 </tspan>
<tspan x="10" y="714">  │ ├── path-is-absolute@1.0.1 </tspan>
<tspan x="10" y="730">  │ └─┬ readdirp@2.1.0 </tspan>
<tspan x="10" y="746">  │   ├── graceful-fs@4.1.11 </tspan>
<tspan x="10" y="762">  │   ├─┬ minimatch@3.0.3 </tspan>
<tspan x="10" y="778">  │   │ └─┬ brace-expansion@1.1.7 </tspan>
<tspan x="10" y="794">  │   │   ├── balanced-match@0.4.2 </tspan>
<tspan x="10" y="810">  │   │   └── concat-map@0.0.1 </tspan>
<tspan x="10" y="826">  │   ├─┬ readable-stream@2.2.9 </tspan>
<tspan x="10" y="842">  │   │ ├── buffer-shims@1.0.0 </tspan>
<tspan x="10" y="858">  │   │ ├── core-util-is@1.0.2 </tspan>
<tspan x="10" y="874">  │   │ ├── isarray@1.0.0 </tspan>
<tspan x="10" y="890">  │   │ ├── process-nextick-args@1.0.7 </tspan>
<tspan x="10" y="906">  │   │ ├── string_decoder@1.0.0 </tspan>
<tspan x="10" y="922">  │   │ └── util-deprecate@1.0.2 </tspan>
<tspan x="10" y="938">  │   └── set-immediate-shim@1.0.1 </tspan>
<tspan x="10" y="954">  ├── deep-equal@1.0.1 </tspan>
<tspan x="10" y="970">  ├─┬ electron@1.4.15 </tspan>
<tspan x="10" y="986">  │ ├─┬ electron-download@3.3.0 </tspan>
<tspan x="10" y="1002">  │ │ ├─┬ debug@2.6.4 </tspan>
<tspan x="10" y="1018">  │ │ │ └── ms@0.7.3 </tspan>
<tspan x="10" y="1034">  │ │ ├─┬ fs-extra@0.30.0 </tspan>
<tspan x="10" y="1050">  │ │ │ ├── klaw@1.3.1 </tspan>
<tspan x="10" y="1066">  │ │ │ └─┬ rimraf@2.6.1 </tspan>
<tspan x="10" y="1082">  │ │ │   └─┬ glob@7.1.1 </tspan>
<tspan x="10" y="1098">  │ │ │     ├── fs.realpath@1.0.0 </tspan>
<tspan x="10" y="1114">  │ │ │     └── inflight@1.0.6 </tspan>
<tspan x="10" y="1130">  │ │ ├── home-path@1.0.5 </tspan>
<tspan x="10" y="1146">  │ │ ├─┬ nugget@2.0.1 </tspan>
<tspan x="10" y="1162">  │ │ │ ├─┬ pretty-bytes@1.0.4 </tspan>
<tspan x="10" y="1178">  │ │ │ │ ├── get-stdin@4.0.1 </tspan>
<tspan x="10" y="1194">  │ │ │ │ └─┬ meow@3.7.0 </tspan>
<tspan x="10" y="1210">  │ │ │ │   ├─┬ camelcase-keys@2.1.0 </tspan>
<tspan x="10" y="1226">  │ │ │ │   │ └── camelcase@2.1.1 </tspan>
<tspan x="10" y="1242">  │ │ │ │   ├── decamelize@1.2.0 </tspan>
<tspan x="10" y="1258">  │ │ │ │   ├─┬ loud-rejection@1.6.0 </tspan>
<tspan x="10" y="1274">  │ │ │ │   │ ├─┬ currently-unhandled@0.4.1 </tspan>
<tspan x="10" y="1290">  │ │ │ │   │ │ └── array-find-index@1.0.2 </tspan>
<tspan x="10" y="1306">  │ │ │ │   │ └── signal-exit@3.0.2 </tspan>
<tspan x="10" y="1322">  │ │ │ │   ├── map-obj@1.0.1 </tspan>
<tspan x="10" y="1338">  │ │ │ │   ├─┬ normalize-package-data@2.3.8 </tspan>
<tspan x="10" y="1354">  │ │ │ │   │ ├── hosted-git-info@2.4.2 </tspan>
<tspan x="10" y="1370">  │ │ │ │   │ ├─┬ is-builtin-module@1.0.0 </tspan>
<tspan x="10" y="1386">  │ │ │ │   │ │ └── builtin-modules@1.1.1 </tspan>
<tspan x="10" y="1402">  │ │ │ │   │ └─┬ validate-npm-package-license@3.0.1 </tspan>
<tspan x="10" y="1418">  │ │ │ │   │   ├─┬ spdx-correct@1.0.2 </tspan>
<tspan x="10" y="1434">  │ │ │ │   │   │ └── spdx-license-ids@1.2.2 </tspan>
<tspan x="10" y="1450">  │ │ │ │   │   └── spdx-expression-parse@1.0.4 </tspan>
<tspan x="10" y="1466">  │ │ │ │   ├─┬ read-pkg-up@1.0.1 </tspan>
<tspan x="10" y="1482">  │ │ │ │   │ ├── find-up@1.1.2 </tspan>
<tspan x="10" y="1498">  │ │ │ │   │ └─┬ read-pkg@1.1.0 </tspan>
<tspan x="10" y="1514">  │ │ │ │   │   ├─┬ load-json-file@1.1.0 </tspan>
<tspan x="10" y="1530">  │ │ │ │   │   │ ├─┬ parse-json@2.2.0 </tspan>
<tspan x="10" y="1546">  │ │ │ │   │   │ │ └─┬ error-ex@1.3.1 </tspan>
<tspan x="10" y="1562">  │ │ │ │   │   │ │   └── is-arrayish@0.2.1 </tspan>
<tspan x="10" y="1578">  │ │ │ │   │   │ ├── pify@2.3.0 </tspan>
<tspan x="10" y="1594">  │ │ │ │   │   │ └─┬ strip-bom@2.0.0 </tspan>
<tspan x="10" y="1610">  │ │ │ │   │   │   └── is-utf8@0.2.1 </tspan>
<tspan x="10" y="1626">  │ │ │ │   │   └── path-type@1.1.0 </tspan>
<tspan x="10" y="1642">  │ │ │ │   ├─┬ redent@1.0.0 </tspan>
<tspan x="10" y="1658">  │ │ │ │   │ ├─┬ indent-string@2.1.0 </tspan>
<tspan x="10" y="1674">  │ │ │ │   │ │ └─┬ repeating@2.0.1 </tspan>
<tspan x="10" y="1690">  │ │ │ │   │ │   └── is-finite@1.0.2 </tspan>
<tspan x="10" y="1706">  │ │ │ │   │ └─┬ strip-indent@1.0.1 </tspan>
<tspan x="10" y="1722">  │ │ │ │   │   └── get-stdin@4.0.1 </tspan>
<tspan x="10" y="1738">  │ │ │ │   └── trim-newlines@1.0.0 </tspan>
<tspan x="10" y="1754">  │ │ │ ├─┬ progress-stream@1.2.0 </tspan>
<tspan x="10" y="1770">  │ │ │ │ ├── speedometer@0.1.4 </tspan>
<tspan x="10" y="1786">  │ │ │ │ └─┬ through2@0.2.3 </tspan>
<tspan x="10" y="1802">  │ │ │ │   ├─┬ readable-stream@1.1.14 </tspan>
<tspan x="10" y="1818">  │ │ │ │   │ ├── isarray@0.0.1 </tspan>
<tspan x="10" y="1834">  │ │ │ │   │ └── string_decoder@0.10.31 </tspan>
<tspan x="10" y="1850">  │ │ │ │   └─┬ xtend@2.1.2 </tspan>
<tspan x="10" y="1866">  │ │ │ │     └── object-keys@0.4.0 </tspan>
<tspan x="10" y="1882">  │ │ │ ├─┬ request@2.81.0 </tspan>
<tspan x="10" y="1898">  │ │ │ │ ├── aws-sign2@0.6.0 </tspan>
<tspan x="10" y="1914">  │ │ │ │ ├── aws4@1.6.0 </tspan>
<tspan x="10" y="1930">  │ │ │ │ ├── caseless@0.12.0 </tspan>
<tspan x="10" y="1946">  │ │ │ │ ├─┬ combined-stream@1.0.5 </tspan>
<tspan x="10" y="1962">  │ │ │ │ │ └── delayed-stream@1.0.0 </tspan>
<tspan x="10" y="1978">  │ │ │ │ ├── forever-agent@0.6.1 </tspan>
<tspan x="10" y="1994">  │ │ │ │ ├─┬ form-data@2.1.4 </tspan>
<tspan x="10" y="2010">  │ │ │ │ │ └── asynckit@0.4.0 </tspan>
<tspan x="10" y="2026">  │ │ │ │ ├─┬ har-validator@4.2.1 </tspan>
<tspan x="10" y="2042">  │ │ │ │ │ ├─┬ ajv@4.11.7 </tspan>
<tspan x="10" y="2058">  │ │ │ │ │ │ ├── co@4.6.0 </tspan>
<tspan x="10" y="2074">  │ │ │ │ │ │ └─┬ json-stable-stringify@1.0.1 </tspan>
<tspan x="10" y="2090">  │ │ │ │ │ │   └── jsonify@0.0.0 </tspan>
<tspan x="10" y="2106">  │ │ │ │ │ └── har-schema@1.0.5 </tspan>
<tspan x="10" y="2122">  │ │ │ │ ├─┬ hawk@3.1.3 </tspan>
<tspan x="10" y="2138">  │ │ │ │ │ ├── boom@2.10.1 </tspan>
<tspan x="10" y="2154">  │ │ │ │ │ ├── cryptiles@2.0.5 </tspan>
<tspan x="10" y="2170">  │ │ │ │ │ ├── hoek@2.16.3 </tspan>
<tspan x="10" y="2186">  │ │ │ │ │ └── sntp@1.0.9 </tspan>
<tspan x="10" y="2202">  │ │ │ │ ├─┬ http-signature@1.1.1 </tspan>
<tspan x="10" y="2218">  │ │ │ │ │ ├── assert-plus@0.2.0 </tspan>
<tspan x="10" y="2234">  │ │ │ │ │ ├─┬ jsprim@1.4.0 </tspan>
<tspan x="10" y="2250">  │ │ │ │ │ │ ├── assert-plus@1.0.0 </tspan>
<tspan x="10" y="2266">  │ │ │ │ │ │ ├── extsprintf@1.0.2 </tspan>
<tspan x="10" y="2282">  │ │ │ │ │ │ ├── json-schema@0.2.3 </tspan>
<tspan x="10" y="2298">  │ │ │ │ │ │ └── verror@1.3.6 </tspan>
<tspan x="10" y="2314">  │ │ │ │ │ └─┬ sshpk@1.13.0 </tspan>
<tspan x="10" y="2330">  │ │ │ │ │   ├── asn1@0.2.3 </tspan>
<tspan x="10" y="2346">  │ │ │ │ │   ├── assert-plus@1.0.0 </tspan>
<tspan x="10" y="2362">  │ │ │ │ │   ├── bcrypt-pbkdf@1.0.1 </tspan>
<tspan x="10" y="2378">  │ │ │ │ │   ├─┬ dashdash@1.14.1 </tspan>
<tspan x="10" y="2394">  │ │ │ │ │   │ └── assert-plus@1.0.0 </tspan>
<tspan x="10" y="2410">  │ │ │ │ │   ├── ecc-jsbn@0.1.1 </tspan>
<tspan x="10" y="2426">  │ │ │ │ │   ├─┬ getpass@0.1.6 </tspan>
<tspan x="10" y="2442">  │ │ │ │ │   │ └── assert-plus@1.0.0 </tspan>
<tspan x="10" y="2458">  │ │ │ │ │   ├── jodid25519@1.0.2 </tspan>
<tspan x="10" y="2474">  │ │ │ │ │   ├── jsbn@0.1.1 </tspan>
<tspan x="10" y="2490">  │ │ │ │ │   └── tweetnacl@0.14.5 </tspan>
<tspan x="10" y="2506">  │ │ │ │ ├── is-typedarray@1.0.0 </tspan>
<tspan x="10" y="2522">  │ │ │ │ ├── isstream@0.1.2 </tspan>
<tspan x="10" y="2538">  │ │ │ │ ├── json-stringify-safe@5.0.1 </tspan>
<tspan x="10" y="2554">  │ │ │ │ ├─┬ mime-types@2.1.15 </tspan>
<tspan x="10" y="2570">  │ │ │ │ │ └── mime-db@1.27.0 </tspan>
<tspan x="10" y="2586">  │ │ │ │ ├── oauth-sign@0.8.2 </tspan>
<tspan x="10" y="2602">  │ │ │ │ ├── performance-now@0.2.0 </tspan>
<tspan x="10" y="2618">  │ │ │ │ ├── qs@6.4.0 </tspan>
<tspan x="10" y="2634">  │ │ │ │ ├── safe-buffer@5.0.1 </tspan>
<tspan x="10" y="2650">  │ │ │ │ ├── stringstream@0.0.5 </tspan>
<tspan x="10" y="2666">  │ │ │ │ ├─┬ tough-cookie@2.3.2 </tspan>
<tspan x="10" y="2682">  │ │ │ │ │ └── punycode@1.4.1 </tspan>
<tspan x="10" y="2698">  │ │ │ │ ├── tunnel-agent@0.6.0 </tspan>
<tspan x="10" y="2714">  │ │ │ │ └── uuid@3.0.1 </tspan>
<tspan x="10" y="2730">  │ │ │ ├─┬ single-line-log@1.1.2 </tspan>
<tspan x="10" y="2746">  │ │ │ │ └─┬ string-width@1.0.2 </tspan>
<tspan x="10" y="2762">  │ │ │ │   ├── code-point-at@1.1.0 </tspan>
<tspan x="10" y="2778">  │ │ │ │   └─┬ is-fullwidth-code-point@1.0.0 </tspan>
<tspan x="10" y="2794">  │ │ │ │     └── number-is-nan@1.0.1 </tspan>
<tspan x="10" y="2810">  │ │ │ └── throttleit@0.0.2 </tspan>
<tspan x="10" y="2826">  │ │ ├─┬ path-exists@2.1.0 </tspan>
<tspan x="10" y="2842">  │ │ │ └─┬ pinkie-promise@2.0.1 </tspan>
<tspan x="10" y="2858">  │ │ │   └── pinkie@2.0.4 </tspan>
<tspan x="10" y="2874">  │ │ ├─┬ rc@1.2.1 </tspan>
<tspan x="10" y="2890">  │ │ │ └── strip-json-comments@2.0.1 </tspan>
<tspan x="10" y="2906">  │ │ ├── semver@5.3.0 </tspan>
<tspan x="10" y="2922">  │ │ └─┬ sumchecker@1.3.1 </tspan>
<tspan x="10" y="2938">  │ │   └── es6-promise@4.1.0 </tspan>
<tspan x="10" y="2954">  │ └─┬ extract-zip@1.6.0 </tspan>
<tspan x="10" y="2970">  │   ├─┬ concat-stream@1.5.0 </tspan>
<tspan x="10" y="2986">  │   │ ├─┬ readable-stream@2.0.6 </tspan>
<tspan x="10" y="3002">  │   │ │ └── string_decoder@0.10.31 </tspan>
<tspan x="10" y="3018">  │   │ └── typedarray@0.0.6 </tspan>
<tspan x="10" y="3034">  │   ├── debug@0.7.4 </tspan>
<tspan x="10" y="3050">  │   ├─┬ mkdirp@0.5.0 </tspan>
<tspan x="10" y="3066">  │   │ └── minimist@0.0.8 </tspan>
<tspan x="10" y="3082">  │   └─┬ yauzl@2.4.1 </tspan>
<tspan x="10" y="3098">  │     └─┬ fd-slicer@1.0.1 </tspan>
<tspan x="10" y="3114">  │       └── pend@1.2.0 </tspan>
<tspan x="10" y="3130">  ├─┬ electron-window-state@4.0.2 </tspan>
<tspan x="10" y="3146">  │ ├── jsonfile@2.4.0 </tspan>
<tspan x="10" y="3162">  │ └─┬ mkdirp@0.5.1 </tspan>
<tspan x="10" y="3178">  │   └── minimist@0.0.8 </tspan>
<tspan x="10" y="3194">  ├── emojify.js@1.1.0 </tspan>
<tspan x="10" y="3210">  ├── get-stdin@5.0.1 </tspan>
<tspan x="10" y="3226">  ├── github-markdown-css@2.4.1 </tspan>
<tspan x="10" y="3242">  ├─┬ lodash.template@4.4.0 </tspan>
<tspan x="10" y="3258">  │ ├── lodash._reinterpolate@3.0.0 </tspan>
<tspan x="10" y="3274">  │ └── lodash.templatesettings@4.1.0 </tspan>
<tspan x="10" y="3290">  ├── mdast-util-to-string@1.0.2 </tspan>
<tspan x="10" y="3306">  ├── minimist@1.2.0 </tspan>
<tspan x="10" y="3322">  ├── object-assign@4.1.1 </tspan>
<tspan x="10" y="3338">  ├─┬ postcss@5.2.14 </tspan>
<tspan x="10" y="3354">  │ ├─┬ chalk@1.1.3 </tspan>
<tspan x="10" y="3370">  │ │ ├── ansi-styles@2.2.1 </tspan>
<tspan x="10" y="3386">  │ │ ├─┬ has-ansi@2.0.0 </tspan>
<tspan x="10" y="3402">  │ │ │ └── ansi-regex@2.1.1 </tspan>
<tspan x="10" y="3418">  │ │ ├── strip-ansi@3.0.1 </tspan>
<tspan x="10" y="3434">  │ │ └── supports-color@2.0.0 </tspan>
<tspan x="10" y="3450">  │ ├── js-base64@2.1.9 </tspan>
<tspan x="10" y="3466">  │ ├── source-map@0.5.6 </tspan>
<tspan x="10" y="3482">  │ └─┬ supports-color@3.2.3 </tspan>
<tspan x="10" y="3498">  │   └── has-flag@1.0.0 </tspan>
<tspan x="10" y="3514">  ├── postcss-safe-important@1.0.4 </tspan>
<tspan x="10" y="3530">  ├─┬ redux@3.6.0 </tspan>
<tspan x="10" y="3546">  │ ├── lodash@4.17.4 </tspan>
<tspan x="10" y="3562">  │ ├── lodash-es@4.17.4 </tspan>
<tspan x="10" y="3578">  │ ├─┬ loose-envify@1.3.1 </tspan>
<tspan x="10" y="3594">  │ │ └── js-tokens@3.0.1 </tspan>
<tspan x="10" y="3610">  │ └── symbol-observable@1.0.4 </tspan>
<tspan x="10" y="3626">  ├─┬ remark@6.2.0 </tspan>
<tspan x="10" y="3642">  │ ├─┬ load-plugin@2.1.0 </tspan>
<tspan x="10" y="3658">  │ │ ├─┬ npm-prefix@1.2.0 </tspan>
<tspan x="10" y="3674">  │ │ │ ├── shellsubstitute@1.2.0 </tspan>
<tspan x="10" y="3690">  │ │ │ └─┬ untildify@2.1.0 </tspan>
<tspan x="10" y="3706">  │ │ │   └── os-homedir@1.0.2 </tspan>
<tspan x="10" y="3722">  │ │ └── resolve-from@2.0.0 </tspan>
<tspan x="10" y="3738">  │ ├─┬ remark-parse@2.3.0 </tspan>
<tspan x="10" y="3754">  │ │ ├── collapse-white-space@1.0.2 </tspan>
<tspan x="10" y="3770">  │ │ ├─┬ has@1.0.1 </tspan>
<tspan x="10" y="3786">  │ │ │ └── function-bind@1.1.0 </tspan>
<tspan x="10" y="3802">  │ │ ├── is-alphabetical@1.0.0 </tspan>
<tspan x="10" y="3818">  │ │ ├── is-decimal@1.0.0 </tspan>
<tspan x="10" y="3834">  │ │ ├── is-whitespace-character@1.0.0 </tspan>
<tspan x="10" y="3850">  │ │ ├── is-word-character@1.0.0 </tspan>
<tspan x="10" y="3866">  │ │ ├── markdown-escapes@1.0.0 </tspan>
<tspan x="10" y="3882">  │ │ ├─┬ parse-entities@1.1.0 </tspan>
<tspan x="10" y="3898">  │ │ │ ├── character-entities@1.2.0 </tspan>
<tspan x="10" y="3914">  │ │ │ ├── character-entities-legacy@1.1.0 </tspan>
<tspan x="10" y="3930">  │ │ │ ├── character-reference-invalid@1.1.0 </tspan>
<tspan x="10" y="3946">  │ │ │ ├── is-alphanumerical@1.0.0 </tspan>
<tspan x="10" y="3962">  │ │ │ └── is-hexadecimal@1.0.0 </tspan>
<tspan x="10" y="3978">  │ │ ├── repeat-string@1.6.1 </tspan>
<tspan x="10" y="3994">  │ │ ├── state-toggle@1.0.0 </tspan>
<tspan x="10" y="4010">  │ │ ├── trim@0.0.1 </tspan>
<tspan x="10" y="4026">  │ │ ├── trim-trailing-lines@1.1.0 </tspan>
<tspan x="10" y="4042">  │ │ ├─┬ unherit@1.1.0 </tspan>
<tspan x="10" y="4058">  │ │ │ └── xtend@4.0.1 </tspan>
<tspan x="10" y="4074">  │ │ ├── unist-util-remove-position@1.1.0 </tspan>
<tspan x="10" y="4090">  │ │ ├── vfile-location@2.0.1 </tspan>
<tspan x="10" y="4106">  │ │ └── xtend@4.0.1 </tspan>
<tspan x="10" y="4122">  │ ├─┬ remark-stringify@2.4.0 </tspan>
<tspan x="10" y="4138">  │ │ ├── ccount@1.0.1 </tspan>
<tspan x="10" y="4154">  │ │ ├── is-alphanumeric@1.0.0 </tspan>
<tspan x="10" y="4170">  │ │ ├── longest-streak@2.0.1 </tspan>
<tspan x="10" y="4186">  │ │ ├── markdown-table@1.1.0 </tspan>
<tspan x="10" y="4202">  │ │ ├─┬ mdast-util-compact@1.0.0 </tspan>
<tspan x="10" y="4218">  │ │ │ └─┬ unist-util-modify-children@1.1.0 </tspan>
<tspan x="10" y="4234">  │ │ │   └── array-iterate@1.1.0 </tspan>
<tspan x="10" y="4250">  │ │ ├─┬ stringify-entities@1.3.0 </tspan>
<tspan x="10" y="4266">  │ │ │ └── character-entities-html4@1.1.0 </tspan>
<tspan x="10" y="4282">  │ │ └── xtend@4.0.1 </tspan>
<tspan x="10" y="4298">  │ └─┬ unified@5.1.0 </tspan>
<tspan x="10" y="4314">  │   ├── bail@1.0.1 </tspan>
<tspan x="10" y="4330">  │   ├── extend@3.0.0 </tspan>
<tspan x="10" y="4346">  │   ├── is-buffer@1.1.5 </tspan>
<tspan x="10" y="4362">  │   ├─┬ once@1.4.0 </tspan>
<tspan x="10" y="4378">  │   │ └── wrappy@1.0.2 </tspan>
<tspan x="10" y="4394">  │   ├── trough@1.0.0 </tspan>
<tspan x="10" y="4410">  │   ├─┬ vfile@2.0.1 </tspan>
<tspan x="10" y="4426">  │   │ ├── replace-ext@1.0.0 </tspan>
<tspan x="10" y="4442">  │   │ └── unist-util-stringify-position@1.1.0 </tspan>
<tspan x="10" y="4458">  │   └── x-is-string@0.1.0 </tspan>
<tspan x="10" y="4474">  ├─┬ remark-emoji-to-gemoji@1.1.0 </tspan>
<tspan x="10" y="4490">  │ ├── escape-string-regexp@1.0.5 </tspan>
<tspan x="10" y="4506">  │ └── gemoji@4.1.0 </tspan>
<tspan x="10" y="4522">  ├─┬ remark-highlight.js@4.0.1 </tspan>
<tspan x="10" y="4538">  │ ├── highlight.js@9.11.0 </tspan>
<tspan x="10" y="4554">  │ └─┬ lowlight@1.7.0 </tspan>
<tspan x="10" y="4570">  │   └── highlight.js@9.10.0 </tspan>
<tspan x="10" y="4586">  ├─┬ remark-html@5.2.0 </tspan>
<tspan x="10" y="4602">  │ ├─┬ hast-util-sanitize@1.1.0 </tspan>
<tspan x="10" y="4618">  │ │ └── xtend@4.0.1 </tspan>
<tspan x="10" y="4634">  │ ├─┬ hast-util-to-html@3.0.0 </tspan>
<tspan x="10" y="4650">  │ │ ├── comma-separated-tokens@1.0.3 </tspan>
<tspan x="10" y="4666">  │ │ ├── hast-util-is-element@1.0.0 </tspan>
<tspan x="10" y="4682">  │ │ ├── hast-util-whitespace@1.0.0 </tspan>
<tspan x="10" y="4698">  │ │ ├── html-void-elements@1.0.1 </tspan>
<tspan x="10" y="4714">  │ │ ├── kebab-case@1.0.0 </tspan>
<tspan x="10" y="4730">  │ │ ├── property-information@3.1.0 </tspan>
<tspan x="10" y="4746">  │ │ ├── space-separated-tokens@1.1.0 </tspan>
<tspan x="10" y="4762">  │ │ ├── unist-util-is@2.0.0 </tspan>
<tspan x="10" y="4778">  │ │ └── xtend@4.0.1 </tspan>
<tspan x="10" y="4794">  │ ├─┬ mdast-util-to-hast@2.4.0 </tspan>
<tspan x="10" y="4810">  │ │ ├── detab@2.0.0 </tspan>
<tspan x="10" y="4826">  │ │ ├── mdast-util-definitions@1.2.0 </tspan>
<tspan x="10" y="4842">  │ │ ├── normalize-uri@1.1.0 </tspan>
<tspan x="10" y="4858">  │ │ ├── trim-lines@1.1.0 </tspan>
<tspan x="10" y="4874">  │ │ ├── unist-builder@1.0.2 </tspan>
<tspan x="10" y="4890">  │ │ ├── unist-util-generated@1.1.0 </tspan>
<tspan x="10" y="4906">  │ │ ├── unist-util-position@3.0.0 </tspan>
<tspan x="10" y="4922">  │ │ └── xtend@4.0.1 </tspan>
<tspan x="10" y="4938">  │ └── xtend@4.0.1 </tspan>
<tspan x="10" y="4954">  ├─┬ remark-slug@4.2.2 </tspan>
<tspan x="10" y="4970">  │ └─┬ github-slugger@1.1.1 </tspan>
<tspan x="10" y="4986">  │   └── emoji-regex@6.4.2 </tspan>
<tspan x="10" y="5002">  ├─┬ rucola@1.1.3 </tspan>
<tspan x="10" y="5018">  │ ├── deep-extend@0.4.1 </tspan>
<tspan x="10" y="5034">  │ ├── flatnest@1.0.0 </tspan>
<tspan x="10" y="5050">  │ ├── ini@1.3.4 </tspan>
<tspan x="10" y="5066">  │ ├── strip-json-comments@1.0.4 </tspan>
<tspan x="10" y="5082">  │ └── yaml-js@0.1.4 </tspan>
<tspan x="10" y="5098">  └── unist-util-visit@1.1.1</tspan>
</text>
</svg>
